<svg xmlns="http://www.w3.org/2000/svg" xmlns:svg="http://www.w3.org/2000/svg" id="svg4136" width="16" height="16" version="1.1" viewBox="0 0 16 16"><metadata id="metadata4141"/><g id="layer1"><path style="color:#000;font-style:normal;font-variant:normal;font-weight:400;font-stretch:normal;font-size:medium;line-height:normal;font-family:sans-serif;text-indent:0;text-align:start;text-decoration:none;text-decoration-line:none;text-decoration-style:solid;text-decoration-color:#000;letter-spacing:normal;word-spacing:normal;text-transform:none;direction:ltr;block-progression:tb;writing-mode:lr-tb;baseline-shift:baseline;text-anchor:start;white-space:normal;clip-rule:nonzero;display:inline;overflow:visible;visibility:visible;opacity:1;isolation:auto;mix-blend-mode:normal;color-interpolation:sRGB;color-interpolation-filters:linearRGB;solid-color:#000;solid-opacity:1;fill:#000;fill-opacity:1;fill-rule:nonzero;stroke:none;stroke-width:.3;stroke-linecap:round;stroke-linejoin:miter;stroke-miterlimit:4;stroke-dasharray:none;stroke-dashoffset:0;stroke-opacity:1;color-rendering:auto;image-rendering:auto;shape-rendering:auto;text-rendering:auto;enable-background:accumulate" id="path4692" d="m 3.9589844,3.1152344 a 1.0001,1.0001 0 0 0 -0.6875,0.3027344 c -2.6027028,2.6027026 -2.6027025,6.8523742 0,9.4550782 2.6027027,2.602703 6.8543276,2.602702 9.4570316,0 2.602702,-2.602704 2.602702,-6.8523756 0,-9.4550782 a 1.0001,1.0001 0 1 0 -1.414063,1.4140624 c 1.838405,1.8384052 1.838406,4.7885468 0,6.6269528 -1.838406,1.838406 -4.7905011,1.838406 -6.6289061,0 -1.8384053,-1.8384058 -1.838405,-4.7885478 0,-6.6269528 A 1.0001,1.0001 0 0 0 3.9589844,3.1152344 Z"/><path style="color:#000;font-style:normal;font-variant:normal;font-weight:400;font-stretch:normal;font-size:medium;line-height:normal;font-family:sans-serif;text-indent:0;text-align:start;text-decoration:none;text-decoration-line:none;text-decoration-style:solid;text-decoration-color:#000;letter-spacing:normal;word-spacing:normal;text-transform:none;direction:ltr;block-progression:tb;writing-mode:lr-tb;baseline-shift:baseline;text-anchor:start;white-space:normal;clip-rule:nonzero;display:inline;overflow:visible;visibility:visible;opacity:1;isolation:auto;mix-blend-mode:normal;color-interpolation:sRGB;color-interpolation-filters:linearRGB;solid-color:#000;solid-opacity:1;fill:#000;fill-opacity:1;fill-rule:evenodd;stroke:none;stroke-width:.3;stroke-linecap:round;stroke-linejoin:miter;stroke-miterlimit:4;stroke-dasharray:none;stroke-dashoffset:0;stroke-opacity:1;color-rendering:auto;image-rendering:auto;shape-rendering:auto;text-rendering:auto;enable-background:accumulate" id="path6137" d="M 7.984375,1.1757812 A 1.0001,1.0001 0 0 0 7,2.1894531 l 0,5.0644531 a 1.0001,1.0001 0 1 0 2,0 L 9,2.1894531 A 1.0001,1.0001 0 0 0 7.984375,1.1757812 Z"/></g></svg>