<svg xmlns="http://www.w3.org/2000/svg" xmlns:svg="http://www.w3.org/2000/svg" xmlns:xlink="http://www.w3.org/1999/xlink" id="svg4136" width="16" height="16" version="1.1" viewBox="0 0 16 16"><defs id="defs4138"><linearGradient id="linearGradient8270"><stop style="stop-color:#fff;stop-opacity:1" id="stop8272" offset="0"/><stop style="stop-color:#000;stop-opacity:1" id="stop8276" offset="1"/></linearGradient><marker id="TriangleOutM" orient="auto" refX="0" refY="0" style="overflow:visible"><path id="path4835" d="M 5.77,0.0 L -2.88,5.0 L -2.88,-5.0 L 5.77,0.0 z" transform="scale(0.4)" style="fill-rule:evenodd;stroke:#000;stroke-width:1pt;stroke-opacity:1;fill:#000;fill-opacity:1"/></marker><marker id="TriangleOutS" orient="auto" refX="0" refY="0" style="overflow:visible"><path id="path4838" d="M 5.77,0.0 L -2.88,5.0 L -2.88,-5.0 L 5.77,0.0 z" transform="scale(0.2)" style="fill-rule:evenodd;stroke:#000;stroke-width:1pt;stroke-opacity:1;fill:#000;fill-opacity:1"/></marker><marker id="Arrow2Send" orient="auto" refX="0" refY="0" style="overflow:visible"><path id="path4723" d="M 8.7185878,4.0337352 L -2.2072895,0.016013256 L 8.7185884,-4.0017078 C 6.9730900,-1.6296469 6.9831476,1.6157441 8.7185878,4.0337352 z" transform="scale(0.3) rotate(180) translate(-2.3,0)" style="fill-rule:evenodd;stroke-width:.625;stroke-linejoin:round;stroke:#000;stroke-opacity:1;fill:#000;fill-opacity:1"/></marker><marker id="TriangleInS" orient="auto" refX="0" refY="0" style="overflow:visible"><path id="path4829" d="M 5.77,0.0 L -2.88,5.0 L -2.88,-5.0 L 5.77,0.0 z" transform="scale(-0.2)" style="fill-rule:evenodd;stroke:#000;stroke-width:1pt;stroke-opacity:1;fill:#000;fill-opacity:1"/></marker><marker id="TriangleInM" orient="auto" refX="0" refY="0" style="overflow:visible"><path id="path4826" d="M 5.77,0.0 L -2.88,5.0 L -2.88,-5.0 L 5.77,0.0 z" transform="scale(-0.4)" style="fill-rule:evenodd;stroke:#000;stroke-width:1pt;stroke-opacity:1;fill:#000;fill-opacity:1"/></marker><marker id="marker5044" orient="auto" refX="0" refY="0" style="overflow:visible"><path id="path5046" d="M 0.0,0.0 L 5.0,-5.0 L -12.5,0.0 L 5.0,5.0 L 0.0,0.0 z" transform="scale(0.2) translate(6,0)" style="fill-rule:evenodd;stroke:#000;stroke-width:1pt;stroke-opacity:1;fill:#000;fill-opacity:1"/></marker><marker id="Arrow2Sstart" orient="auto" refX="0" refY="0" style="overflow:visible"><path id="path4720" d="M 8.7185878,4.0337352 L -2.2072895,0.016013256 L 8.7185884,-4.0017078 C 6.9730900,-1.6296469 6.9831476,1.6157441 8.7185878,4.0337352 z" transform="scale(0.3) translate(-2.3,0)" style="fill-rule:evenodd;stroke-width:.625;stroke-linejoin:round;stroke:#000;stroke-opacity:1;fill:#000;fill-opacity:1"/></marker><marker id="Arrow1Sstart" orient="auto" refX="0" refY="0" style="overflow:visible"><path id="path4702" d="M 0.0,0.0 L 5.0,-5.0 L -12.5,0.0 L 5.0,5.0 L 0.0,0.0 z" transform="scale(0.2) translate(6,0)" style="fill-rule:evenodd;stroke:#000;stroke-width:1pt;stroke-opacity:1;fill:#000;fill-opacity:1"/></marker><linearGradient id="linearGradient8750" x1="13.338" x2="15.969" y1="13.887" y2="15.712" gradientUnits="userSpaceOnUse" xlink:href="#linearGradient8270"/></defs><metadata id="metadata4141"/><g id="layer1"><circle style="fill:url(#linearGradient8750);fill-opacity:1;fill-rule:nonzero;stroke:none;stroke-width:1.00600004;stroke-linecap:butt;stroke-linejoin:miter;stroke-miterlimit:4;stroke-dasharray:none;stroke-dashoffset:0" id="path7823-08" cx="14" cy="14" r="1"/><use id="use8018" x="0" y="0" transform="translate(0,-3)" xlink:href="#path7823-08"/><use id="use8020" x="0" y="0" transform="translate(0,-6)" xlink:href="#path7823-08"/><use id="use8022" x="0" y="0" transform="translate(-3,0)" xlink:href="#path7823-08"/><use id="use8024" x="0" y="0" transform="translate(-3,-3)" xlink:href="#path7823-08"/><use id="use8028" x="0" y="0" transform="translate(-6,0)" xlink:href="#path7823-08"/></g></svg>