<svg xmlns="http://www.w3.org/2000/svg" xmlns:svg="http://www.w3.org/2000/svg" xmlns:xlink="http://www.w3.org/1999/xlink" id="svg4136" width="20" height="20" version="1.1" viewBox="0 0 20 20"><defs id="defs4138"><linearGradient id="linearGradient8270"><stop style="stop-color:#fff;stop-opacity:1" id="stop8272" offset="0"/><stop style="stop-color:#000;stop-opacity:1" id="stop8276" offset="1"/></linearGradient><marker id="TriangleOutM" orient="auto" refX="0" refY="0" style="overflow:visible"><path id="path4835" d="m 5.77,0 -8.65,5 0,-10 8.65,5 z" transform="scale(0.4,0.4)" style="fill:#000;fill-opacity:1;fill-rule:evenodd;stroke:#000;stroke-width:1pt;stroke-opacity:1"/></marker><marker id="TriangleOutS" orient="auto" refX="0" refY="0" style="overflow:visible"><path id="path4838" d="m 5.77,0 -8.65,5 0,-10 8.65,5 z" transform="scale(0.2,0.2)" style="fill:#000;fill-opacity:1;fill-rule:evenodd;stroke:#000;stroke-width:1pt;stroke-opacity:1"/></marker><marker id="Arrow2Send" orient="auto" refX="0" refY="0" style="overflow:visible"><path id="path4723" d="M 8.7185878,4.0337352 -2.2072895,0.01601326 8.7185884,-4.0017078 c -1.7454984,2.3720609 -1.7354408,5.6174519 -6e-7,8.035443 z" transform="matrix(-0.3,0,0,-0.3,0.69,0)" style="fill:#000;fill-opacity:1;fill-rule:evenodd;stroke:#000;stroke-width:.625;stroke-linejoin:round;stroke-opacity:1"/></marker><marker id="TriangleInS" orient="auto" refX="0" refY="0" style="overflow:visible"><path id="path4829" d="m 5.77,0 -8.65,5 0,-10 8.65,5 z" transform="scale(-0.2,-0.2)" style="fill:#000;fill-opacity:1;fill-rule:evenodd;stroke:#000;stroke-width:1pt;stroke-opacity:1"/></marker><marker id="TriangleInM" orient="auto" refX="0" refY="0" style="overflow:visible"><path id="path4826" d="m 5.77,0 -8.65,5 0,-10 8.65,5 z" transform="scale(-0.4,-0.4)" style="fill:#000;fill-opacity:1;fill-rule:evenodd;stroke:#000;stroke-width:1pt;stroke-opacity:1"/></marker><marker id="marker5044" orient="auto" refX="0" refY="0" style="overflow:visible"><path id="path5046" d="M 0,0 5,-5 -12.5,0 5,5 0,0 Z" transform="matrix(0.2,0,0,0.2,1.2,0)" style="fill:#000;fill-opacity:1;fill-rule:evenodd;stroke:#000;stroke-width:1pt;stroke-opacity:1"/></marker><marker id="Arrow2Sstart" orient="auto" refX="0" refY="0" style="overflow:visible"><path id="path4720" d="M 8.7185878,4.0337352 -2.2072895,0.01601326 8.7185884,-4.0017078 c -1.7454984,2.3720609 -1.7354408,5.6174519 -6e-7,8.035443 z" transform="matrix(0.3,0,0,0.3,-0.69,0)" style="fill:#000;fill-opacity:1;fill-rule:evenodd;stroke:#000;stroke-width:.625;stroke-linejoin:round;stroke-opacity:1"/></marker><marker id="Arrow1Sstart" orient="auto" refX="0" refY="0" style="overflow:visible"><path id="path4702" d="M 0,0 5,-5 -12.5,0 5,5 0,0 Z" transform="matrix(0.2,0,0,0.2,1.2,0)" style="fill:#000;fill-opacity:1;fill-rule:evenodd;stroke:#000;stroke-width:1pt;stroke-opacity:1"/></marker><linearGradient id="linearGradient4305" x1="13.338" x2="15.969" y1="13.887" y2="15.712" gradientTransform="matrix(1.4999999,0,0,1.4999999,-3.4999995,-7.5)" gradientUnits="userSpaceOnUse" xlink:href="#linearGradient8270"/><linearGradient id="linearGradient4305-9" x1="13.338" x2="15.969" y1="13.887" y2="15.712" gradientTransform="matrix(1.4999999,0,0,1.4999999,-3.5000002,-11.5)" gradientUnits="userSpaceOnUse" xlink:href="#linearGradient8270"/><linearGradient id="linearGradient4305-9-8" x1="13.338" x2="15.969" y1="13.887" y2="15.712" gradientTransform="matrix(1.4999999,0,0,1.4999999,-7.5000009,-11.500001)" gradientUnits="userSpaceOnUse" xlink:href="#linearGradient8270"/><linearGradient id="linearGradient4305-96" x1="13.338" x2="15.969" y1="13.887" y2="15.712" gradientTransform="matrix(1.4999999,0,0,1.4999999,-7.5000009,-7.5000005)" gradientUnits="userSpaceOnUse" xlink:href="#linearGradient8270"/><linearGradient id="linearGradient4305-9-0" x1="13.338" x2="15.969" y1="13.887" y2="15.712" gradientTransform="matrix(1.4999999,0,0,1.4999999,-3.5000007,-15.5)" gradientUnits="userSpaceOnUse" xlink:href="#linearGradient8270"/><linearGradient id="linearGradient4305-96-7" x1="13.338" x2="15.969" y1="13.887" y2="15.712" gradientTransform="matrix(1.4999999,0,0,1.4999999,-11.500001,-7.4999995)" gradientUnits="userSpaceOnUse" xlink:href="#linearGradient8270"/></defs><metadata id="metadata4141"/><g id="layer1" transform="translate(0,4)"><circle style="fill:url(#linearGradient4305);fill-opacity:1;fill-rule:nonzero;stroke:none;stroke-width:1.00600004;stroke-linecap:butt;stroke-linejoin:miter;stroke-miterlimit:4;stroke-dasharray:none;stroke-dashoffset:0" id="path7823-08" cx="17.5" cy="13.5" r="1.5"/><circle style="fill:url(#linearGradient4305-9);fill-opacity:1;fill-rule:nonzero;stroke:none;stroke-width:1.00600004;stroke-linecap:butt;stroke-linejoin:miter;stroke-miterlimit:4;stroke-dasharray:none;stroke-dashoffset:0" id="path7823-08-2" cx="17.5" cy="9.5" r="1.5"/><circle style="fill:url(#linearGradient4305-96);fill-opacity:1;fill-rule:nonzero;stroke:none;stroke-width:1.00600004;stroke-linecap:butt;stroke-linejoin:miter;stroke-miterlimit:4;stroke-dasharray:none;stroke-dashoffset:0" id="path7823-08-5" cx="13.5" cy="13.5" r="1.5"/><circle style="fill:url(#linearGradient4305-9-8);fill-opacity:1;fill-rule:nonzero;stroke:none;stroke-width:1.00600004;stroke-linecap:butt;stroke-linejoin:miter;stroke-miterlimit:4;stroke-dasharray:none;stroke-dashoffset:0" id="path7823-08-2-6" cx="13.5" cy="9.5" r="1.5"/><circle style="fill:url(#linearGradient4305-9-0);fill-opacity:1;fill-rule:nonzero;stroke:none;stroke-width:1.00600004;stroke-linecap:butt;stroke-linejoin:miter;stroke-miterlimit:4;stroke-dasharray:none;stroke-dashoffset:0" id="path7823-08-2-67" cx="17.5" cy="5.5" r="1.5"/><circle style="fill:url(#linearGradient4305-96-7);fill-opacity:1;fill-rule:nonzero;stroke:none;stroke-width:1.00600004;stroke-linecap:butt;stroke-linejoin:miter;stroke-miterlimit:4;stroke-dasharray:none;stroke-dashoffset:0" id="path7823-08-5-1" cx="9.5" cy="13.5" r="1.5"/></g></svg>